<?xml version="1.0" standalone="no"?>
<!DOCTYPE svg PUBLIC "-//W3C//DTD SVG 20010904//EN"
 "http://www.w3.org/TR/2001/REC-SVG-20010904/DTD/svg10.dtd">
<svg version="1.0" xmlns="http://www.w3.org/2000/svg"
 width="70.000000pt" height="70.000000pt" viewBox="0 0 70.000000 70.000000"
 preserveAspectRatio="xMidYMid meet">
<metadata>
Created by potrace 1.11, written by Peter Selinger 2001-2013
</metadata>
<g transform="translate(0.000000,70.000000) scale(0.100000,-0.100000)"
fill="#000000" stroke="none">
<path d="M275 694 c-11 -3 -44 -17 -72 -31 -235 -113 -254 -443 -33 -582 62
-39 115 -55 182 -54 127 2 241 71 297 180 11 23 21 48 21 55 0 10 -54 13 -263
11 -329 -2 -309 -1 -305 -15 3 -9 72 -12 258 -12 181 -1 254 -4 257 -12 4 -11
-16 -37 -69 -93 -42 -43 -125 -74 -199 -74 -116 0 -212 61 -266 171 -36 73
-38 172 -6 244 25 54 100 131 146 148 18 7 42 17 54 22 12 6 51 8 87 6 88 -7
163 -44 216 -108 62 -73 99 -65 43 9 -67 88 -148 131 -255 136 -40 2 -82 1
-93 -1z"/>
<path d="M252 619 c-53 -21 -142 -96 -135 -114 3 -11 93 -7 93 4 0 15 78 50
123 55 50 6 121 -16 158 -50 11 -10 32 -14 58 -12 l42 3 -32 38 c-69 83 -204
117 -307 76z"/>
<path d="M99 450 c0 -3 -2 -36 -2 -73 -3 -78 14 -107 40 -72 7 11 26 21 41 22
50 4 68 12 79 36 12 27 -7 86 -29 88 -48 4 -128 4 -129 -1z m115 -46 c9 -22
-7 -39 -39 -42 -27 -2 -41 17 -31 43 8 21 62 20 70 -1z"/>
<path d="M289 441 c-6 -59 -3 -137 5 -143 23 -16 36 6 36 63 l0 59 45 0 c44 0
58 11 33 26 -7 5 -36 9 -65 9 -41 1 -53 -2 -54 -14z"/>
<path d="M444 452 c-15 -11 -11 -146 4 -155 19 -12 40 9 35 36 -7 34 22 30 54
-7 44 -52 81 -40 43 14 l-22 30 22 37 c16 27 18 38 9 44 -13 8 -39 1 -39 -10
0 -14 -41 -51 -55 -51 -10 0 -15 10 -15 29 0 29 -18 45 -36 33z"/>
<path d="M124 218 c-17 -27 96 -114 161 -124 11 -1 32 -5 48 -8 37 -6 132 19
171 46 39 27 86 80 80 89 -9 15 -85 2 -107 -18 -63 -56 -160 -59 -242 -5 -40
26 -101 37 -111 20z"/>
</g>
</svg>
